<mxfile host="app.diagrams.net" agent="Mozilla/5.0 (Windows NT 10.0; Win64; x64) AppleWebKit/537.36 (KHTML, like Gecko) Chrome/134.0.0.0 Safari/537.36" version="25.0.3">
  <diagram name="PÃ¡gina-1" id="4nw62lO1h6hBah5cUrS4">
    <mxGraphModel dx="1050" dy="522" grid="1" gridSize="10" guides="1" tooltips="1" connect="1" arrows="1" fold="1" page="1" pageScale="1" pageWidth="827" pageHeight="1169" math="0" shadow="0">
      <root>
        <mxCell id="0" />
        <mxCell id="1" parent="0" />
        <mxCell id="E68iJSFj84GTbNLbcEv8-1" value="BUSQUEDA" style="whiteSpace=wrap;html=1;align=center;" vertex="1" parent="1">
          <mxGeometry x="350" y="300" width="100" height="40" as="geometry" />
        </mxCell>
        <mxCell id="E68iJSFj84GTbNLbcEv8-2" value="COMIC" style="whiteSpace=wrap;html=1;align=center;" vertex="1" parent="1">
          <mxGeometry x="580" y="470" width="100" height="40" as="geometry" />
        </mxCell>
        <mxCell id="E68iJSFj84GTbNLbcEv8-3" value="SERIE" style="whiteSpace=wrap;html=1;align=center;" vertex="1" parent="1">
          <mxGeometry x="350" y="470" width="100" height="40" as="geometry" />
        </mxCell>
        <mxCell id="E68iJSFj84GTbNLbcEv8-4" value="PERSONAJE" style="whiteSpace=wrap;html=1;align=center;" vertex="1" parent="1">
          <mxGeometry x="120" y="470" width="100" height="40" as="geometry" />
        </mxCell>
        <mxCell id="E68iJSFj84GTbNLbcEv8-5" value="USUARIO" style="whiteSpace=wrap;html=1;align=center;" vertex="1" parent="1">
          <mxGeometry x="350" y="80" width="100" height="40" as="geometry" />
        </mxCell>
        <mxCell id="E68iJSFj84GTbNLbcEv8-6" value="busca" style="shape=rhombus;perimeter=rhombusPerimeter;whiteSpace=wrap;html=1;align=center;" vertex="1" parent="1">
          <mxGeometry x="355" y="190" width="90" height="40" as="geometry" />
        </mxCell>
        <mxCell id="E68iJSFj84GTbNLbcEv8-7" value="Relationship" style="shape=rhombus;perimeter=rhombusPerimeter;whiteSpace=wrap;html=1;align=center;" vertex="1" parent="1">
          <mxGeometry x="220" y="380" width="90" height="40" as="geometry" />
        </mxCell>
        <mxCell id="E68iJSFj84GTbNLbcEv8-8" value="Relationship" style="shape=rhombus;perimeter=rhombusPerimeter;whiteSpace=wrap;html=1;align=center;" vertex="1" parent="1">
          <mxGeometry x="470" y="380" width="90" height="40" as="geometry" />
        </mxCell>
        <mxCell id="E68iJSFj84GTbNLbcEv8-9" value="IDIOMA" style="whiteSpace=wrap;html=1;align=center;" vertex="1" parent="1">
          <mxGeometry x="660" y="80" width="100" height="40" as="geometry" />
        </mxCell>
        <mxCell id="E68iJSFj84GTbNLbcEv8-10" value="cambiar" style="shape=rhombus;perimeter=rhombusPerimeter;whiteSpace=wrap;html=1;align=center;" vertex="1" parent="1">
          <mxGeometry x="520" y="80" width="90" height="40" as="geometry" />
        </mxCell>
        <mxCell id="E68iJSFj84GTbNLbcEv8-11" value="Relationship" style="shape=rhombus;perimeter=rhombusPerimeter;whiteSpace=wrap;html=1;align=center;" vertex="1" parent="1">
          <mxGeometry x="360" y="600" width="90" height="40" as="geometry" />
        </mxCell>
        <mxCell id="E68iJSFj84GTbNLbcEv8-17" value="" style="endArrow=none;html=1;rounded=0;entryX=0;entryY=0.5;entryDx=0;entryDy=0;" edge="1" parent="1" target="E68iJSFj84GTbNLbcEv8-11">
          <mxGeometry relative="1" as="geometry">
            <mxPoint x="220" y="489.5" as="sourcePoint" />
            <mxPoint x="340" y="510" as="targetPoint" />
          </mxGeometry>
        </mxCell>
        <mxCell id="E68iJSFj84GTbNLbcEv8-18" value="1" style="resizable=0;html=1;whiteSpace=wrap;align=right;verticalAlign=bottom;" connectable="0" vertex="1" parent="E68iJSFj84GTbNLbcEv8-17">
          <mxGeometry x="1" relative="1" as="geometry" />
        </mxCell>
        <mxCell id="E68iJSFj84GTbNLbcEv8-19" value="" style="endArrow=none;html=1;rounded=0;entryX=0;entryY=0.5;entryDx=0;entryDy=0;exitX=1;exitY=0.5;exitDx=0;exitDy=0;" edge="1" parent="1" source="E68iJSFj84GTbNLbcEv8-11" target="E68iJSFj84GTbNLbcEv8-2">
          <mxGeometry relative="1" as="geometry">
            <mxPoint x="445" y="489.5" as="sourcePoint" />
            <mxPoint x="580" y="490" as="targetPoint" />
          </mxGeometry>
        </mxCell>
        <mxCell id="E68iJSFj84GTbNLbcEv8-20" value="1" style="resizable=0;html=1;whiteSpace=wrap;align=right;verticalAlign=bottom;" connectable="0" vertex="1" parent="E68iJSFj84GTbNLbcEv8-19">
          <mxGeometry x="1" relative="1" as="geometry" />
        </mxCell>
      </root>
    </mxGraphModel>
  </diagram>
</mxfile>
